<?xml version="1.0" encoding="UTF-8" standalone="no"?>
<!DOCTYPE svg PUBLIC "-//W3C//DTD SVG 1.1//EN"
 "http://www.w3.org/Graphics/SVG/1.1/DTD/svg11.dtd">
<!-- Generated by graphviz version 2.40.1 (20161225.0304)
 -->
<!-- Title: dependencies Pages: 1 -->
<svg width="3715pt" height="284pt"
 viewBox="0.00 0.00 3715.00 284.00" xmlns="http://www.w3.org/2000/svg" xmlns:xlink="http://www.w3.org/1999/xlink">
<g id="graph0" class="graph" transform="scale(1 1) rotate(0) translate(4 280)">
<title>dependencies</title>
<polygon fill="#ffffff" stroke="transparent" points="-4,4 -4,-280 3711,-280 3711,4 -4,4"/>
<text text-anchor="start" x="1832.5091" y="-42.4" font-family="sans-serif" font-weight="bold" font-size="14.00" fill="#000000">Legend</text>
<polygon fill="#ffffb3" stroke="transparent" points="1619.5,-10 1619.5,-30 1639.5,-30 1639.5,-10 1619.5,-10"/>
<text text-anchor="start" x="1643.129" y="-15.4" font-family="sans-serif" font-size="14.00" fill="#000000"> &#160;Declarations</text>
<polygon fill="#8dd3c7" stroke="transparent" points="1732.5,-10 1732.5,-30 1752.5,-30 1752.5,-10 1732.5,-10"/>
<text text-anchor="start" x="1756.2251" y="-15.4" font-family="sans-serif" font-size="14.00" fill="#000000"> &#160;Module</text>
<polygon fill="#80b1d3" stroke="transparent" points="1818.5,-10 1818.5,-30 1838.5,-30 1838.5,-10 1818.5,-10"/>
<text text-anchor="start" x="1842.2812" y="-15.4" font-family="sans-serif" font-size="14.00" fill="#000000"> &#160;Bootstrap</text>
<polygon fill="#fdb462" stroke="transparent" points="1915.5,-10 1915.5,-30 1935.5,-30 1935.5,-10 1915.5,-10"/>
<text text-anchor="start" x="1939.1732" y="-15.4" font-family="sans-serif" font-size="14.00" fill="#000000"> &#160;Providers</text>
<polygon fill="#fb8072" stroke="transparent" points="2011.5,-10 2011.5,-30 2031.5,-30 2031.5,-10 2011.5,-10"/>
<text text-anchor="start" x="2035.2258" y="-15.4" font-family="sans-serif" font-size="14.00" fill="#000000"> &#160;Exports</text>
<g id="clust1" class="cluster">
<title>cluster_AppModule</title>
<polygon fill="none" stroke="#000000" stroke-dasharray="1,5" points="8,-70 8,-268 3699,-268 3699,-70 8,-70"/>
</g>
<g id="clust2" class="cluster">
<title>cluster_AppModule_declarations</title>
<polygon fill="none" stroke="#000000" points="983,-78 983,-130 3691,-130 3691,-78 983,-78"/>
</g>
<g id="clust20" class="cluster">
<title>cluster_AppModule_imports</title>
<polygon fill="none" stroke="#000000" points="831,-78 831,-130 975,-130 975,-78 831,-78"/>
</g>
<g id="clust22" class="cluster">
<title>cluster_AppModule_bootstrap</title>
<polygon fill="none" stroke="#000000" points="1844,-208 1844,-260 1968,-260 1968,-208 1844,-208"/>
</g>
<g id="clust23" class="cluster">
<title>cluster_AppModule_providers</title>
<polygon fill="none" stroke="#000000" points="16,-78 16,-130 823,-130 823,-78 16,-78"/>
</g>
<!-- AppComponent -->
<g id="node1" class="node">
<title>AppComponent</title>
<polygon fill="#ffffb3" stroke="#000000" points="3682.9399,-122 3577.0601,-122 3577.0601,-86 3682.9399,-86 3682.9399,-122"/>
<text text-anchor="middle" x="3630" y="-99.8" font-family="Times,serif" font-size="14.00" fill="#000000">AppComponent</text>
</g>
<!-- AppModule -->
<g id="node18" class="node">
<title>AppModule</title>
<polygon fill="#8dd3c7" stroke="#000000" points="1947.6571,-187 1944.6571,-191 1923.6571,-191 1920.6571,-187 1864.3429,-187 1864.3429,-151 1947.6571,-151 1947.6571,-187"/>
<text text-anchor="middle" x="1906" y="-164.8" font-family="Times,serif" font-size="14.00" fill="#000000">AppModule</text>
</g>
<!-- AppComponent&#45;&gt;AppModule -->
<g id="edge1" class="edge">
<title>AppComponent&#45;&gt;AppModule</title>
<path fill="none" stroke="#000000" d="M3630,-122.1532C3630,-145.7566 3630,-184 3630,-184 3630,-184 1957.7617,-184 1957.7617,-184"/>
<polygon fill="#000000" stroke="#000000" points="1957.7618,-180.5001 1947.7617,-184 1957.7617,-187.5001 1957.7618,-180.5001"/>
</g>
<!-- LoginFormComponent -->
<g id="node2" class="node">
<title>LoginFormComponent</title>
<polygon fill="#ffffb3" stroke="#000000" points="3559.6094,-122 3414.3906,-122 3414.3906,-86 3559.6094,-86 3559.6094,-122"/>
<text text-anchor="middle" x="3487" y="-99.8" font-family="Times,serif" font-size="14.00" fill="#000000">LoginFormComponent</text>
</g>
<!-- LoginFormComponent&#45;&gt;AppModule -->
<g id="edge2" class="edge">
<title>LoginFormComponent&#45;&gt;AppModule</title>
<path fill="none" stroke="#000000" d="M3487,-122.2479C3487,-145.0179 3487,-181 3487,-181 3487,-181 1957.8807,-181 1957.8807,-181"/>
<polygon fill="#000000" stroke="#000000" points="1957.8807,-177.5001 1947.8807,-181 1957.8807,-184.5001 1957.8807,-177.5001"/>
</g>
<!-- FooterComponent -->
<g id="node3" class="node">
<title>FooterComponent</title>
<polygon fill="#ffffb3" stroke="#000000" points="3396.8809,-122 3279.1191,-122 3279.1191,-86 3396.8809,-86 3396.8809,-122"/>
<text text-anchor="middle" x="3338" y="-99.8" font-family="Times,serif" font-size="14.00" fill="#000000">FooterComponent</text>
</g>
<!-- FooterComponent&#45;&gt;AppModule -->
<g id="edge3" class="edge">
<title>FooterComponent&#45;&gt;AppModule</title>
<path fill="none" stroke="#000000" d="M3338,-122.2921C3338,-144.2057 3338,-178 3338,-178 3338,-178 1957.6963,-178 1957.6963,-178"/>
<polygon fill="#000000" stroke="#000000" points="1957.6963,-174.5001 1947.6963,-178 1957.6962,-181.5001 1957.6963,-174.5001"/>
</g>
<!-- HeaderComponent -->
<g id="node4" class="node">
<title>HeaderComponent</title>
<polygon fill="#ffffb3" stroke="#000000" points="3260.7437,-122 3139.2563,-122 3139.2563,-86 3260.7437,-86 3260.7437,-122"/>
<text text-anchor="middle" x="3200" y="-99.8" font-family="Times,serif" font-size="14.00" fill="#000000">HeaderComponent</text>
</g>
<!-- HeaderComponent&#45;&gt;AppModule -->
<g id="edge4" class="edge">
<title>HeaderComponent&#45;&gt;AppModule</title>
<path fill="none" stroke="#000000" d="M3200,-122.2843C3200,-143.3211 3200,-175 3200,-175 3200,-175 1957.9523,-175 1957.9523,-175"/>
<polygon fill="#000000" stroke="#000000" points="1957.9524,-171.5001 1947.9523,-175 1957.9523,-178.5001 1957.9524,-171.5001"/>
</g>
<!-- DashboardComponent -->
<g id="node5" class="node">
<title>DashboardComponent</title>
<polygon fill="#ffffb3" stroke="#000000" points="3120.9734,-122 2979.0266,-122 2979.0266,-86 3120.9734,-86 3120.9734,-122"/>
<text text-anchor="middle" x="3050" y="-99.8" font-family="Times,serif" font-size="14.00" fill="#000000">DashboardComponent</text>
</g>
<!-- DashboardComponent&#45;&gt;AppModule -->
<g id="edge5" class="edge">
<title>DashboardComponent&#45;&gt;AppModule</title>
<path fill="none" stroke="#000000" d="M3050,-122.2228C3050,-142.3652 3050,-172 3050,-172 3050,-172 1957.7312,-172 1957.7312,-172"/>
<polygon fill="#000000" stroke="#000000" points="1957.7313,-168.5001 1947.7312,-172 1957.7312,-175.5001 1957.7313,-168.5001"/>
</g>
<!-- RecipesComponent -->
<g id="node6" class="node">
<title>RecipesComponent</title>
<polygon fill="#ffffb3" stroke="#000000" points="2960.6485,-122 2835.3515,-122 2835.3515,-86 2960.6485,-86 2960.6485,-122"/>
<text text-anchor="middle" x="2898" y="-99.8" font-family="Times,serif" font-size="14.00" fill="#000000">RecipesComponent</text>
</g>
<!-- RecipesComponent&#45;&gt;AppModule -->
<g id="edge6" class="edge">
<title>RecipesComponent&#45;&gt;AppModule</title>
<path fill="none" stroke="#000000" d="M2898,-122.1061C2898,-141.3391 2898,-169 2898,-169 2898,-169 1957.6762,-169 1957.6762,-169"/>
<polygon fill="#000000" stroke="#000000" points="1957.6762,-165.5001 1947.6762,-169 1957.6761,-172.5001 1957.6762,-165.5001"/>
</g>
<!-- RecipeListComponent -->
<g id="node7" class="node">
<title>RecipeListComponent</title>
<polygon fill="#ffffb3" stroke="#000000" points="2816.9818,-122 2675.0182,-122 2675.0182,-86 2816.9818,-86 2816.9818,-122"/>
<text text-anchor="middle" x="2746" y="-99.8" font-family="Times,serif" font-size="14.00" fill="#000000">RecipeListComponent</text>
</g>
<!-- RecipeListComponent&#45;&gt;AppModule -->
<g id="edge7" class="edge">
<title>RecipeListComponent&#45;&gt;AppModule</title>
<path fill="none" stroke="#000000" d="M2746,-122.2667C2746,-140.5552 2746,-166 2746,-166 2746,-166 1957.9431,-166 1957.9431,-166"/>
<polygon fill="#000000" stroke="#000000" points="1957.9432,-162.5001 1947.9431,-166 1957.9431,-169.5001 1957.9432,-162.5001"/>
</g>
<!-- RecipeDetailComponent -->
<g id="node8" class="node">
<title>RecipeDetailComponent</title>
<polygon fill="#ffffb3" stroke="#000000" points="2657.4115,-122 2502.5885,-122 2502.5885,-86 2657.4115,-86 2657.4115,-122"/>
<text text-anchor="middle" x="2580" y="-99.8" font-family="Times,serif" font-size="14.00" fill="#000000">RecipeDetailComponent</text>
</g>
<!-- RecipeDetailComponent&#45;&gt;AppModule -->
<g id="edge8" class="edge">
<title>RecipeDetailComponent&#45;&gt;AppModule</title>
<path fill="none" stroke="#000000" d="M2580,-122.0225C2580,-139.3734 2580,-163 2580,-163 2580,-163 1957.9071,-163 1957.9071,-163"/>
<polygon fill="#000000" stroke="#000000" points="1957.9071,-159.5001 1947.9071,-163 1957.907,-166.5001 1957.9071,-159.5001"/>
</g>
<!-- RecipeItemComponent -->
<g id="node9" class="node">
<title>RecipeItemComponent</title>
<polygon fill="#ffffb3" stroke="#000000" points="2484.8599,-122 2339.1401,-122 2339.1401,-86 2484.8599,-86 2484.8599,-122"/>
<text text-anchor="middle" x="2412" y="-99.8" font-family="Times,serif" font-size="14.00" fill="#000000">RecipeItemComponent</text>
</g>
<!-- RecipeItemComponent&#45;&gt;AppModule -->
<g id="edge9" class="edge">
<title>RecipeItemComponent&#45;&gt;AppModule</title>
<path fill="none" stroke="#000000" d="M2412,-122.027C2412,-138.3976 2412,-160 2412,-160 2412,-160 1957.8386,-160 1957.8386,-160"/>
<polygon fill="#000000" stroke="#000000" points="1957.8386,-156.5001 1947.8386,-160 1957.8386,-163.5001 1957.8386,-156.5001"/>
</g>
<!-- ShoppingListComponent -->
<g id="node10" class="node">
<title>ShoppingListComponent</title>
<polygon fill="#ffffb3" stroke="#000000" points="2321.2841,-122 2164.7159,-122 2164.7159,-86 2321.2841,-86 2321.2841,-122"/>
<text text-anchor="middle" x="2243" y="-99.8" font-family="Times,serif" font-size="14.00" fill="#000000">ShoppingListComponent</text>
</g>
<!-- ShoppingListComponent&#45;&gt;AppModule -->
<g id="edge10" class="edge">
<title>ShoppingListComponent&#45;&gt;AppModule</title>
<path fill="none" stroke="#000000" d="M2243,-122.2396C2243,-137.5706 2243,-157 2243,-157 2243,-157 1957.6608,-157 1957.6608,-157"/>
<polygon fill="#000000" stroke="#000000" points="1957.6608,-153.5001 1947.6608,-157 1957.6608,-160.5001 1957.6608,-153.5001"/>
</g>
<!-- ShoppingEditComponent -->
<g id="node11" class="node">
<title>ShoppingEditComponent</title>
<polygon fill="#ffffb3" stroke="#000000" points="2146.3398,-122 1987.6602,-122 1987.6602,-86 2146.3398,-86 2146.3398,-122"/>
<text text-anchor="middle" x="2067" y="-99.8" font-family="Times,serif" font-size="14.00" fill="#000000">ShoppingEditComponent</text>
</g>
<!-- ShoppingEditComponent&#45;&gt;AppModule -->
<g id="edge11" class="edge">
<title>ShoppingEditComponent&#45;&gt;AppModule</title>
<path fill="none" stroke="#000000" d="M2067,-122.0511C2067,-136.373 2067,-154 2067,-154 2067,-154 1957.8806,-154 1957.8806,-154"/>
<polygon fill="#000000" stroke="#000000" points="1957.8806,-150.5001 1947.8806,-154 1957.8805,-157.5001 1957.8806,-150.5001"/>
</g>
<!-- DropdownDirective -->
<g id="node12" class="node">
<title>DropdownDirective</title>
<polygon fill="#ffffb3" stroke="#000000" points="1969.9566,-122 1842.0434,-122 1842.0434,-86 1969.9566,-86 1969.9566,-122"/>
<text text-anchor="middle" x="1906" y="-99.8" font-family="Times,serif" font-size="14.00" fill="#000000">DropdownDirective</text>
</g>
<!-- DropdownDirective&#45;&gt;AppModule -->
<g id="edge12" class="edge">
<title>DropdownDirective&#45;&gt;AppModule</title>
<path fill="none" stroke="#000000" d="M1906,-122.1061C1906,-122.1061 1906,-140.991 1906,-140.991"/>
<polygon fill="#000000" stroke="#000000" points="1902.5001,-140.9909 1906,-150.991 1909.5001,-140.991 1902.5001,-140.9909"/>
</g>
<!-- RecipeStartComponent -->
<g id="node13" class="node">
<title>RecipeStartComponent</title>
<polygon fill="#ffffb3" stroke="#000000" points="1824.1428,-122 1677.8572,-122 1677.8572,-86 1824.1428,-86 1824.1428,-122"/>
<text text-anchor="middle" x="1751" y="-99.8" font-family="Times,serif" font-size="14.00" fill="#000000">RecipeStartComponent</text>
</g>
<!-- RecipeStartComponent&#45;&gt;AppModule -->
<g id="edge13" class="edge">
<title>RecipeStartComponent&#45;&gt;AppModule</title>
<path fill="none" stroke="#000000" d="M1751,-122.0511C1751,-136.373 1751,-154 1751,-154 1751,-154 1854.0548,-154 1854.0548,-154"/>
<polygon fill="#000000" stroke="#000000" points="1854.0548,-157.5001 1864.0548,-154 1854.0547,-150.5001 1854.0548,-157.5001"/>
</g>
<!-- RecipeEditComponent -->
<g id="node14" class="node">
<title>RecipeEditComponent</title>
<polygon fill="#ffffb3" stroke="#000000" points="1659.5379,-122 1516.4621,-122 1516.4621,-86 1659.5379,-86 1659.5379,-122"/>
<text text-anchor="middle" x="1588" y="-99.8" font-family="Times,serif" font-size="14.00" fill="#000000">RecipeEditComponent</text>
</g>
<!-- RecipeEditComponent&#45;&gt;AppModule -->
<g id="edge14" class="edge">
<title>RecipeEditComponent&#45;&gt;AppModule</title>
<path fill="none" stroke="#000000" d="M1588,-122.2396C1588,-137.5706 1588,-157 1588,-157 1588,-157 1854.1001,-157 1854.1001,-157"/>
<polygon fill="#000000" stroke="#000000" points="1854.1001,-160.5001 1864.1001,-157 1854.1,-153.5001 1854.1001,-160.5001"/>
</g>
<!-- RecipeSearchComponent -->
<g id="node15" class="node">
<title>RecipeSearchComponent</title>
<polygon fill="#ffffb3" stroke="#000000" points="1498.2907,-122 1339.7093,-122 1339.7093,-86 1498.2907,-86 1498.2907,-122"/>
<text text-anchor="middle" x="1419" y="-99.8" font-family="Times,serif" font-size="14.00" fill="#000000">RecipeSearchComponent</text>
</g>
<!-- RecipeSearchComponent&#45;&gt;AppModule -->
<g id="edge15" class="edge">
<title>RecipeSearchComponent&#45;&gt;AppModule</title>
<path fill="none" stroke="#000000" d="M1419,-122.027C1419,-138.3976 1419,-160 1419,-160 1419,-160 1854.0572,-160 1854.0572,-160"/>
<polygon fill="#000000" stroke="#000000" points="1854.0572,-163.5001 1864.0572,-160 1854.0571,-156.5001 1854.0572,-163.5001"/>
</g>
<!-- SearchListComponent -->
<g id="node16" class="node">
<title>SearchListComponent</title>
<polygon fill="#ffffb3" stroke="#000000" points="1321.6979,-122 1180.3021,-122 1180.3021,-86 1321.6979,-86 1321.6979,-122"/>
<text text-anchor="middle" x="1251" y="-99.8" font-family="Times,serif" font-size="14.00" fill="#000000">SearchListComponent</text>
</g>
<!-- SearchListComponent&#45;&gt;AppModule -->
<g id="edge16" class="edge">
<title>SearchListComponent&#45;&gt;AppModule</title>
<path fill="none" stroke="#000000" d="M1251,-122.0225C1251,-139.3734 1251,-163 1251,-163 1251,-163 1854.0304,-163 1854.0304,-163"/>
<polygon fill="#000000" stroke="#000000" points="1854.0304,-166.5001 1864.0304,-163 1854.0304,-159.5001 1854.0304,-166.5001"/>
</g>
<!-- SearchKeywordComponent -->
<g id="node17" class="node">
<title>SearchKeywordComponent</title>
<polygon fill="#ffffb3" stroke="#000000" points="1162.5085,-122 991.4915,-122 991.4915,-86 1162.5085,-86 1162.5085,-122"/>
<text text-anchor="middle" x="1077" y="-99.8" font-family="Times,serif" font-size="14.00" fill="#000000">SearchKeywordComponent</text>
</g>
<!-- SearchKeywordComponent&#45;&gt;AppModule -->
<g id="edge17" class="edge">
<title>SearchKeywordComponent&#45;&gt;AppModule</title>
<path fill="none" stroke="#000000" d="M1077,-122.2667C1077,-140.5552 1077,-166 1077,-166 1077,-166 1854.3216,-166 1854.3216,-166"/>
<polygon fill="#000000" stroke="#000000" points="1854.3217,-169.5001 1864.3216,-166 1854.3216,-162.5001 1854.3217,-169.5001"/>
</g>
<!-- AppComponent  -->
<g id="node20" class="node">
<title>AppComponent </title>
<polygon fill="#80b1d3" stroke="#000000" points="1960.439,-252 1851.561,-252 1851.561,-216 1960.439,-216 1960.439,-252"/>
<text text-anchor="middle" x="1906" y="-229.8" font-family="Times,serif" font-size="14.00" fill="#000000">AppComponent </text>
</g>
<!-- AppModule&#45;&gt;AppComponent  -->
<g id="edge19" class="edge">
<title>AppModule&#45;&gt;AppComponent </title>
<path fill="none" stroke="#000000" stroke-dasharray="1,5" d="M1906,-187.1061C1906,-187.1061 1906,-205.991 1906,-205.991"/>
<polygon fill="#000000" stroke="#000000" points="1902.5001,-205.9909 1906,-215.991 1909.5001,-205.991 1902.5001,-205.9909"/>
</g>
<!-- AppRoutingModule -->
<g id="node19" class="node">
<title>AppRoutingModule</title>
<polygon fill="#8dd3c7" stroke="#000000" points="967.2744,-122 964.2744,-126 943.2744,-126 940.2744,-122 838.7256,-122 838.7256,-86 967.2744,-86 967.2744,-122"/>
<text text-anchor="middle" x="903" y="-99.8" font-family="Times,serif" font-size="14.00" fill="#000000">AppRoutingModule</text>
</g>
<!-- AppRoutingModule&#45;&gt;AppModule -->
<g id="edge18" class="edge">
<title>AppRoutingModule&#45;&gt;AppModule</title>
<path fill="none" stroke="#000000" d="M903,-122.1061C903,-141.3391 903,-169 903,-169 903,-169 1854.1793,-169 1854.1793,-169"/>
<polygon fill="#000000" stroke="#000000" points="1854.1793,-172.5001 1864.1793,-169 1854.1793,-165.5001 1854.1793,-172.5001"/>
</g>
<!-- UserService -->
<g id="node21" class="node">
<title>UserService</title>
<ellipse fill="#fdb462" stroke="#000000" cx="757" cy="-104" rx="58.4415" ry="18"/>
<text text-anchor="middle" x="757" y="-99.8" font-family="Times,serif" font-size="14.00" fill="#000000">UserService</text>
</g>
<!-- UserService&#45;&gt;AppModule -->
<g id="edge20" class="edge">
<title>UserService&#45;&gt;AppModule</title>
<path fill="none" stroke="#000000" d="M757,-122.2228C757,-142.3652 757,-172 757,-172 757,-172 1854.0864,-172 1854.0864,-172"/>
<polygon fill="#000000" stroke="#000000" points="1854.0864,-175.5001 1864.0864,-172 1854.0863,-168.5001 1854.0864,-175.5001"/>
</g>
<!-- AuthGuard -->
<g id="node22" class="node">
<title>AuthGuard</title>
<ellipse fill="#fdb462" stroke="#000000" cx="626" cy="-104" rx="54.4566" ry="18"/>
<text text-anchor="middle" x="626" y="-99.8" font-family="Times,serif" font-size="14.00" fill="#000000">AuthGuard</text>
</g>
<!-- AuthGuard&#45;&gt;AppModule -->
<g id="edge21" class="edge">
<title>AuthGuard&#45;&gt;AppModule</title>
<path fill="none" stroke="#000000" d="M626,-122.2843C626,-143.3211 626,-175 626,-175 626,-175 1854.1398,-175 1854.1398,-175"/>
<polygon fill="#000000" stroke="#000000" points="1854.1399,-178.5001 1864.1398,-175 1854.1398,-171.5001 1854.1399,-178.5001"/>
</g>
<!-- RecipeService -->
<g id="node23" class="node">
<title>RecipeService</title>
<ellipse fill="#fdb462" stroke="#000000" cx="487" cy="-104" rx="66.6094" ry="18"/>
<text text-anchor="middle" x="487" y="-99.8" font-family="Times,serif" font-size="14.00" fill="#000000">RecipeService</text>
</g>
<!-- RecipeService&#45;&gt;AppModule -->
<g id="edge22" class="edge">
<title>RecipeService&#45;&gt;AppModule</title>
<path fill="none" stroke="#000000" d="M487,-122.2921C487,-144.2057 487,-178 487,-178 487,-178 1854.3005,-178 1854.3005,-178"/>
<polygon fill="#000000" stroke="#000000" points="1854.3005,-181.5001 1864.3005,-178 1854.3005,-174.5001 1854.3005,-181.5001"/>
</g>
<!-- ShoppingListService -->
<g id="node24" class="node">
<title>ShoppingListService</title>
<ellipse fill="#fdb462" stroke="#000000" cx="310" cy="-104" rx="92.0741" ry="18"/>
<text text-anchor="middle" x="310" y="-99.8" font-family="Times,serif" font-size="14.00" fill="#000000">ShoppingListService</text>
</g>
<!-- ShoppingListService&#45;&gt;AppModule -->
<g id="edge23" class="edge">
<title>ShoppingListService&#45;&gt;AppModule</title>
<path fill="none" stroke="#000000" d="M310,-122.2479C310,-145.0179 310,-181 310,-181 310,-181 1854.1312,-181 1854.1312,-181"/>
<polygon fill="#000000" stroke="#000000" points="1854.1313,-184.5001 1864.1312,-181 1854.1312,-177.5001 1854.1313,-184.5001"/>
</g>
<!-- DataStorageService -->
<g id="node25" class="node">
<title>DataStorageService</title>
<ellipse fill="#fdb462" stroke="#000000" cx="112" cy="-104" rx="87.9355" ry="18"/>
<text text-anchor="middle" x="112" y="-99.8" font-family="Times,serif" font-size="14.00" fill="#000000">DataStorageService</text>
</g>
<!-- DataStorageService&#45;&gt;AppModule -->
<g id="edge24" class="edge">
<title>DataStorageService&#45;&gt;AppModule</title>
<path fill="none" stroke="#000000" d="M112,-122.1532C112,-145.7566 112,-184 112,-184 112,-184 1854.2953,-184 1854.2953,-184"/>
<polygon fill="#000000" stroke="#000000" points="1854.2954,-187.5001 1864.2953,-184 1854.2953,-180.5001 1854.2954,-187.5001"/>
</g>
</g>
</svg>
